<svg width="126" height="48" viewBox="0 0 126 48" fill="none" xmlns="http://www.w3.org/2000/svg">
<path d="M25.9961 23.4258C25.9961 26.2253 25.5013 28.6797 24.5117 30.7891C23.5221 32.8984 22.1029 34.526 20.2539 35.6719C18.418 36.8177 16.3086 37.3906 13.9258 37.3906C11.569 37.3906 9.46615 36.8242 7.61719 35.6914C5.76823 34.5586 4.33594 32.944 3.32031 30.8477C2.30469 28.7383 1.79036 26.3164 1.77734 23.582V22.1758C1.77734 19.3763 2.27865 16.9154 3.28125 14.793C4.29688 12.6576 5.72266 11.0234 7.55859 9.89062C9.40755 8.74479 11.5169 8.17188 13.8867 8.17188C16.2565 8.17188 18.3594 8.74479 20.1953 9.89062C22.0443 11.0234 23.4701 12.6576 24.4727 14.793C25.4883 16.9154 25.9961 19.3698 25.9961 22.1562V23.4258ZM20.0586 22.1367C20.0586 19.1549 19.5247 16.8893 18.457 15.3398C17.3893 13.7904 15.8659 13.0156 13.8867 13.0156C11.9206 13.0156 10.4036 13.7839 9.33594 15.3203C8.26823 16.8438 7.72786 19.0833 7.71484 22.0391V23.4258C7.71484 26.3294 8.2487 28.582 9.31641 30.1836C10.3841 31.7852 11.9206 32.5859 13.9258 32.5859C15.8919 32.5859 17.4023 31.8177 18.457 30.2812C19.5117 28.7318 20.0456 26.4792 20.0586 23.5234V22.1367ZM35.5398 37H29.8758V7H35.5398V37ZM52.1539 37C51.8935 36.4922 51.7047 35.8607 51.5875 35.1055C50.2203 36.6289 48.443 37.3906 46.2555 37.3906C44.1852 37.3906 42.4664 36.7917 41.0992 35.5938C39.7451 34.3958 39.068 32.8854 39.068 31.0625C39.068 28.8229 39.8948 27.1042 41.5484 25.9062C43.2151 24.7083 45.6174 24.1029 48.7555 24.0898H51.3531V22.8789C51.3531 21.9023 51.0992 21.1211 50.5914 20.5352C50.0966 19.9492 49.3089 19.6562 48.2281 19.6562C47.2776 19.6562 46.5289 19.8841 45.982 20.3398C45.4482 20.7956 45.1813 21.4206 45.1813 22.2148H39.5367C39.5367 20.9909 39.9143 19.8581 40.6695 18.8164C41.4247 17.7747 42.4924 16.9609 43.8727 16.375C45.2529 15.776 46.8023 15.4766 48.5211 15.4766C51.1253 15.4766 53.1891 16.1341 54.7125 17.4492C56.249 18.7513 57.0172 20.5872 57.0172 22.957V32.1172C57.0302 34.1224 57.3102 35.6393 57.857 36.668V37H52.1539ZM47.4859 33.0742C48.3193 33.0742 49.0875 32.8919 49.7906 32.5273C50.4938 32.1497 51.0146 31.6484 51.3531 31.0234V27.3906H49.2438C46.4182 27.3906 44.9143 28.3672 44.732 30.3203L44.7125 30.6523C44.7125 31.3555 44.9599 31.9349 45.4547 32.3906C45.9495 32.8464 46.6266 33.0742 47.4859 33.0742ZM49.6344 7H55.7867L50.3766 13.0547H45.7867L49.6344 7ZM61.4242 37V8.5625H70.1742C72.6742 8.5625 74.9073 9.12891 76.8734 10.2617C78.8526 11.3815 80.3956 12.9831 81.5023 15.0664C82.6091 17.1367 83.1625 19.4935 83.1625 22.1367V23.4453C83.1625 26.0885 82.6156 28.4388 81.5219 30.4961C80.4411 32.5534 78.9112 34.1484 76.932 35.2812C74.9529 36.4141 72.7198 36.987 70.2328 37H61.4242ZM67.2836 13.3086V32.293H70.1156C72.4073 32.293 74.1586 31.5443 75.3695 30.0469C76.5805 28.5495 77.199 26.4076 77.225 23.6211V22.1172C77.225 19.2266 76.626 17.0391 75.4281 15.5547C74.2302 14.0573 72.4789 13.3086 70.1742 13.3086H67.2836ZM96.4953 37.3906C93.3964 37.3906 90.8703 36.4401 88.9172 34.5391C86.9771 32.638 86.007 30.1055 86.007 26.9414V26.3945C86.007 24.2721 86.4172 22.3776 87.2375 20.7109C88.0578 19.0312 89.2167 17.7422 90.7141 16.8438C92.2245 15.9323 93.9432 15.4766 95.8703 15.4766C98.7609 15.4766 101.033 16.388 102.687 18.2109C104.353 20.0339 105.187 22.6185 105.187 25.9648V28.2695H91.7297C91.912 29.6497 92.4589 30.7565 93.3703 31.5898C94.2948 32.4232 95.4602 32.8398 96.8664 32.8398C99.0409 32.8398 100.74 32.0521 101.964 30.4766L104.738 33.582C103.891 34.7799 102.745 35.7174 101.3 36.3945C99.8547 37.0586 98.2531 37.3906 96.4953 37.3906ZM95.8508 20.0469C94.731 20.0469 93.8195 20.4245 93.1164 21.1797C92.4263 21.9349 91.9836 23.0156 91.7883 24.4219H99.6398V23.9727C99.6138 22.7227 99.2753 21.7591 98.6242 21.082C97.9732 20.3919 97.0487 20.0469 95.8508 20.0469ZM115.746 30.1055L119.672 15.8672H125.57L118.441 37H113.051L105.922 15.8672H111.82L115.746 30.1055Z" fill="#1F319D"/>
<path d="M35.5 43.75C35.5 45.8211 33.8211 47.5 31.75 47.5C29.6789 47.5 28 45.8211 28 43.75C28 41.6789 29.6789 40 31.75 40C33.8211 40 35.5 41.6789 35.5 43.75Z" fill="#1F319D"/>
<path d="M46 43.75C46 45.8211 44.3211 47.5 42.25 47.5C40.1789 47.5 38.5 45.8211 38.5 43.75C38.5 41.6789 40.1789 40 42.25 40C44.3211 40 46 41.6789 46 43.75Z" fill="#1F319D" fill-opacity="0.8"/>
<path d="M55.75 43.75C55.75 45.8211 54.0711 47.5 52 47.5C49.9289 47.5 48.25 45.8211 48.25 43.75C48.25 41.6789 49.9289 40 52 40C54.0711 40 55.75 41.6789 55.75 43.75Z" fill="#1F319D" fill-opacity="0.7"/>
<path d="M65.5 43.75C65.5 45.8211 63.8211 47.5 61.75 47.5C59.6789 47.5 58 45.8211 58 43.75C58 41.6789 59.6789 40 61.75 40C63.8211 40 65.5 41.6789 65.5 43.75Z" fill="#1F319D" fill-opacity="0.5"/>
<path d="M74.875 43.75C74.875 45.8211 73.1961 47.5 71.125 47.5C69.0539 47.5 67.375 45.8211 67.375 43.75C67.375 41.6789 69.0539 40 71.125 40C73.1961 40 74.875 41.6789 74.875 43.75Z" fill="#1F319D" fill-opacity="0.4"/>
<path d="M84.25 43.75C84.25 45.8211 82.5711 47.5 80.5 47.5C78.4289 47.5 76.75 45.8211 76.75 43.75C76.75 41.6789 78.4289 40 80.5 40C82.5711 40 84.25 41.6789 84.25 43.75Z" fill="#1F319D" fill-opacity="0.3"/>
<path d="M94.375 43.75C94.375 45.8211 92.6961 47.5 90.625 47.5C88.5539 47.5 86.875 45.8211 86.875 43.75C86.875 41.6789 88.5539 40 90.625 40C92.6961 40 94.375 41.6789 94.375 43.75Z" fill="#1F319D" fill-opacity="0.2"/>
<path d="M104.125 43.75C104.125 45.8211 102.446 47.5 100.375 47.5C98.3039 47.5 96.625 45.8211 96.625 43.75C96.625 41.6789 98.3039 40 100.375 40C102.446 40 104.125 41.6789 104.125 43.75Z" fill="#1F319D" fill-opacity="0.1"/>
</svg>
